<svg width="30" height="30" viewBox="0 0 30 30" fill="none" xmlns="http://www.w3.org/2000/svg">
<path d="M16.7348 28.9987C16.7348 28.9987 6.6189 29.3388 4.08795 19.2149L6.959 15.8456H7.2991C7.2991 15.8456 8.98376 24.4508 16.9167 24.4508C24.8497 24.4508 26.1863 17.0241 26.1863 17.0241C26.1863 17.0241 26.3524 16.0117 26.3524 14.8332C26.3524 13.6548 26.3524 1 26.3524 1" stroke="#121619" stroke-width="2" stroke-miterlimit="10"/>
<path d="M11.8469 14.9993C11.8469 14.9993 12.187 19.8872 16.9088 19.8872C21.6306 19.8872 21.7967 15.1654 21.7967 15.1654V1.68018H20.9583L17.415 4.88341V17.5303C17.415 17.5303 17.415 19.0488 16.0625 19.8951" stroke="#121619" stroke-width="2" stroke-miterlimit="10"/>
</svg>
