<svg width="269" height="265" viewBox="0 0 269 265" fill="none" xmlns="http://www.w3.org/2000/svg">
<circle cx="256" cy="252" r="13" fill="#FFFDFA"/>
<path d="M143.072 252.18C143.072 252.18 56.5877 255.087 34.9496 168.535L59.4953 139.729H62.4029C62.4029 139.729 76.8057 213.299 144.628 213.299C212.449 213.299 223.877 149.805 223.877 149.805C223.877 149.805 225.297 141.149 225.297 131.074C225.297 120.999 225.297 12.8086 225.297 12.8086" stroke="#FFFDFA" stroke-width="24" stroke-miterlimit="10" stroke-linecap="round" stroke-linejoin="round"/>
<path d="M101.284 132.494C101.284 132.494 104.191 174.283 144.56 174.283C184.928 174.283 186.348 133.914 186.348 133.914V18.6238H179.181L148.888 46.0095V154.132C148.888 154.132 148.888 167.115 137.325 174.35" stroke="#FFFDFA" stroke-width="24" stroke-miterlimit="10" stroke-linecap="round" stroke-linejoin="round"/>
</svg>
