<svg width="30" height="30" viewBox="0 0 30 30" fill="none" xmlns="http://www.w3.org/2000/svg">
<path d="M16.7349 28.9987C16.7349 28.9987 6.61896 29.3388 4.08801 19.2149L6.95906 15.8456H7.29916C7.29916 15.8456 8.98382 24.4508 16.9168 24.4508C24.8497 24.4508 26.1864 17.0241 26.1864 17.0241C26.1864 17.0241 26.3525 16.0117 26.3525 14.8332C26.3525 13.6548 26.3525 1 26.3525 1" stroke="#FFFDFA" stroke-width="2" stroke-miterlimit="10"/>
<path d="M11.8469 14.9993C11.8469 14.9993 12.187 19.8872 16.9088 19.8872C21.6306 19.8872 21.7967 15.1654 21.7967 15.1654V1.68018H20.9583L17.415 4.88341V17.5303C17.415 17.5303 17.415 19.0488 16.0625 19.8951" stroke="#FFFDFA" stroke-width="2" stroke-miterlimit="10"/>
</svg>
